<svg id="Layer_1" data-name="Layer 1" xmlns="http://www.w3.org/2000/svg" xmlns:xlink="http://www.w3.org/1999/xlink" viewBox="0 0 293.18 89.42"><defs><style>.cls-1{fill:none;clip-rule:evenodd;}.cls-2,.cls-3{fill:#243c7b;}.cls-3{fill-rule:evenodd;}.cls-4{clip-path:url(#clip-path);}.cls-5{fill:#08a7e0;}.cls-6{fill:#68cce7;}.cls-7{fill:#aedfe6;}</style><clipPath id="clip-path"><path class="cls-1" d="M2.37,19.58,144.14,46.29,22.29,76.88s6.55-2.66,9-4.07,5.93-3.75,7.6-5,7-5.18,7.87-12-5.18-12-7.16-13.72-17.27-11.88-21.7-14c-4.22-2.75-15.48-8.48-15.48-8.48"/></clipPath></defs><path class="cls-2" d="M75.15,87.8A43.3,43.3,0,0,1,43.91,74.39l-.59-.62,73.62-18.49-.23.83A43.2,43.2,0,0,1,75.15,87.8ZM45.23,74.32a42.1,42.1,0,0,0,70.28-17.65Z"/><path class="cls-2" d="M37.71,66.07l-.28-.51a43.1,43.1,0,0,1-5.37-20.85c0-1.43.07-2.88.21-4.31l.08-.83.7.47c2.65,1.79,4.58,3.16,5.16,3.66,1.78,1.52,7.17,6.14,6.42,11.83a13.88,13.88,0,0,1-3.19,7.06,19.55,19.55,0,0,1-3.27,3.12ZM33.19,41.35c-.09,1.11-.13,2.24-.13,3.36a42.17,42.17,0,0,0,5,19.85A18.74,18.74,0,0,0,40.67,62a12.91,12.91,0,0,0,3-6.55c.68-5.15-4.41-9.51-6.08-10.94C37.07,44,35.42,42.86,33.19,41.35Z"/><path class="cls-3" d="M2.37,19.58,144.14,46.29,22.29,76.88s6.55-2.66,9-4.07,5.93-3.75,7.6-5,7-5.18,7.87-12-5.18-12-7.16-13.72-17.27-11.88-21.7-14c-4.22-2.75-15.48-8.48-15.48-8.48"/><g class="cls-4"><path class="cls-5" d="M-50,74.24c66.47-6.12,132.34-16.3,197.27-32.66q-1.51,6.74-3,13.46C61.2,74,3.26,75.71-50,74.24"/><path class="cls-5" d="M-39.42,67.64A1155.89,1155.89,0,0,0,152.06,20.23L149,34C76.36,56.83,14.43,67-39.42,67.64"/><path class="cls-6" d="M-29.28,60.63C31.79,45.4,94,24.09,156.9-1.42q-1.54,6.93-3.1,13.86C87.13,38.62,25.45,55.85-29.28,60.63"/><path class="cls-7" d="M-19.16,52.32C42.41,33.62,103,5.47,162.91-28.25l-3.81,17C87.31,24.4,26.49,47.22-19.16,52.32"/><path class="cls-6" d="M-6.06,43.54C63.08,10.1,119.3-24.54,170-59.71q-2.1,9.36-4.19,18.72C108.33-4.33,51,26-6.06,43.54"/><path class="cls-5" d="M4,32.68C72-10.3,131-54,178.67-98.68q-2.55,11.45-5.12,22.88C117.15-27.13,59.41,6.4,4,32.68"/><path class="cls-5" d="M182.55-125.89l-19.24.5a841.9,841.9,0,0,1-71.86,77.2C65.33-23.3,39.07-1,12.79,21,70.35-17.87,127.47-61.37,182.55-125.89"/></g><path class="cls-2" d="M117.71,39.33,117,39.2,37.14,24.15l.35-.6a43.1,43.1,0,0,1,80.12,15.09Zm-79-15.9,77.8,14.66a42.1,42.1,0,0,0-77.8-14.66Z"/><path class="cls-2" d="M151.77,31.2V17.29h2.65l4.09,7.92h0l4.09-7.92h2.65V31.2h-2.63V22.6h0l-3.24,6h-1.71l-3.23-6h0V31.2Z"/><path class="cls-2" d="M169.63,16.24a1.52,1.52,0,0,1-1.12-.46,1.6,1.6,0,0,1-.44-1.13,1.57,1.57,0,0,1,.44-1.11,1.58,1.58,0,0,1,2.23,0,1.54,1.54,0,0,1,.45,1.11,1.57,1.57,0,0,1-.45,1.13A1.52,1.52,0,0,1,169.63,16.24Zm-1.35,15V17.29H171V31.2Z"/><path class="cls-2" d="M174,31.2V17.29h2.68V28.76h5.9V31.2Z"/><path class="cls-2" d="M184.53,31.2V17.29h2.69V28.76h5.9V31.2Z"/><path class="cls-2" d="M196.55,16.24a1.52,1.52,0,0,1-1.12-.46,1.6,1.6,0,0,1-.44-1.13,1.57,1.57,0,0,1,.44-1.11,1.58,1.58,0,0,1,2.23,0,1.54,1.54,0,0,1,.45,1.11,1.57,1.57,0,0,1-.45,1.13A1.52,1.52,0,0,1,196.55,16.24Zm-1.35,15V17.29h2.68V31.2Z"/><path class="cls-2" d="M150.61,53l4.94-13.91h2.55l5,13.91H160.3l-.92-2.78h-5.11l-.9,2.78ZM155,47.84h3.61l-1.79-5.45h0Z"/><path class="cls-2" d="M167.06,53l-5-13.91H165l3.27,10h0l3.25-10h2.81L169.38,53Z"/><path class="cls-2" d="M177.53,38a1.49,1.49,0,0,1-1.12-.47,1.63,1.63,0,0,1,0-2.23,1.58,1.58,0,0,1,2.23,0,1.61,1.61,0,0,1,0,2.23A1.49,1.49,0,0,1,177.53,38Zm-1.35,15V39.06h2.68V53Z"/><path class="cls-2" d="M180.7,53l4.94-13.91h2.56l5,13.91h-2.76l-.92-2.78h-5.1L183.46,53Zm4.42-5.13h3.6l-1.78-5.45h0Z"/><path class="cls-2" d="M198.9,53.15A6.47,6.47,0,0,1,194,50.94l1.6-2a5.15,5.15,0,0,0,1.61,1.29,3.77,3.77,0,0,0,1.71.45,2.14,2.14,0,0,0,1.41-.4,1.3,1.3,0,0,0,.49-1.07,1.33,1.33,0,0,0-.5-1.11,6.74,6.74,0,0,0-1.81-.87c-.48-.17-.88-.33-1.21-.48a9.09,9.09,0,0,1-1.07-.59,4.41,4.41,0,0,1-.93-.8,3.31,3.31,0,0,1-.59-1,4,4,0,0,1-.24-1.41,3.71,3.71,0,0,1,1.24-2.81,4.39,4.39,0,0,1,3-1.16,6.83,6.83,0,0,1,4.51,1.76l-1.54,2.08a4.72,4.72,0,0,0-2.91-1.38,1.71,1.71,0,0,0-1.15.38,1.28,1.28,0,0,0-.46,1,1.14,1.14,0,0,0,.48,1,9.1,9.1,0,0,0,1.77.88,15.69,15.69,0,0,1,2.7,1.29,3.39,3.39,0,0,1,1.45,3,4,4,0,0,1-.75,2.46,4.21,4.21,0,0,1-1.79,1.43A5.73,5.73,0,0,1,198.9,53.15Z"/><path class="cls-2" d="M207.23,38a1.46,1.46,0,0,1-1.11-.47,1.63,1.63,0,0,1,0-2.23,1.45,1.45,0,0,1,1.11-.46,1.48,1.48,0,0,1,1.11.46,1.61,1.61,0,0,1,0,2.23A1.49,1.49,0,0,1,207.23,38Zm-1.35,15V39.06h2.69V53Z"/><path class="cls-2" d="M214.67,53V46.86l-4.41-7.8h3L216,44.12h0l2.66-5.06h3.07l-4.44,7.8V53Z"/><path class="cls-2" d="M220.71,53l4.94-13.91h2.56L233.16,53H230.4l-.92-2.78h-5.1L223.47,53Zm4.42-5.13h3.6L227,42.39h0Z"/><path class="cls-2" d="M150.61,74.74l4.94-13.91h2.55l5,13.91H160.3L159.38,72h-5.11l-.9,2.78ZM155,69.61h3.61l-1.79-5.45h0Z"/><path class="cls-2" d="M164.78,74.74V60.83h2.65v6.09h0L172,60.83h3.36L170.47,67l5.09,7.78h-3.27l-3.56-5.58-1.3,1.6v4Z"/><path class="cls-2" d="M176,74.74,181,60.83h2.55l5,13.91H185.7L184.78,72h-5.11l-.9,2.78Zm4.41-5.13H184l-1.79-5.45h0Z"/><path class="cls-2" d="M190.19,74.74V60.83h4.41a6.73,6.73,0,0,1,5,1.93,7.7,7.7,0,0,1,.05,10.07,6.7,6.7,0,0,1-5,1.91Zm2.61-2.45h1.68a4,4,0,0,0,3.1-1.27,4.54,4.54,0,0,0,1.19-3.21,4.65,4.65,0,0,0-1.17-3.25,3.82,3.82,0,0,0-3-1.28H192.8Z"/><path class="cls-2" d="M203.85,74.74V60.83h8.53v2.45h-5.92v3.35h4.74V69h-4.74v3.25h6.31v2.45Z"/><path class="cls-2" d="M215.1,74.74V60.83h2.65l4.09,7.92h0L226,60.83h2.65V74.74H226v-8.6h0l-3.25,6H221l-3.22-6h0v8.62Z"/><path class="cls-2" d="M233,59.77a1.46,1.46,0,0,1-1.12-.46,1.63,1.63,0,0,1,0-2.23,1.46,1.46,0,0,1,1.12-.46,1.47,1.47,0,0,1,1.1.46,1.61,1.61,0,0,1,0,2.23A1.47,1.47,0,0,1,233,59.77Zm-1.36,15V60.83h2.69V74.74Z"/><path class="cls-2" d="M240.39,74.74V68.63L236,60.83h3l2.72,5.06h0l2.67-5.06h3.06l-4.43,7.8v6.11Z"/><path class="cls-2" d="M246.44,74.74l4.93-13.91h2.56l4.95,13.91h-2.76L255.2,72h-5.1l-.9,2.78Zm4.41-5.13h3.6l-1.78-5.45h0Z"/><path class="cls-2" d="M264.63,74.92a6.41,6.41,0,0,1-4.86-2.22l1.59-2A5.15,5.15,0,0,0,263,72a3.77,3.77,0,0,0,1.71.45,2.14,2.14,0,0,0,1.41-.4,1.31,1.31,0,0,0,.49-1.07,1.35,1.35,0,0,0-.5-1.12,6.79,6.79,0,0,0-1.81-.86c-.47-.17-.88-.33-1.21-.48a8,8,0,0,1-1.07-.6,4.11,4.11,0,0,1-.93-.79,3.45,3.45,0,0,1-.59-1.06,3.92,3.92,0,0,1-.24-1.4,3.69,3.69,0,0,1,1.24-2.81,4.45,4.45,0,0,1,3-1.17,6.79,6.79,0,0,1,4.5,1.77l-1.54,2.07a4.73,4.73,0,0,0-2.91-1.37,1.71,1.71,0,0,0-1.15.38,1.26,1.26,0,0,0-.46,1,1.12,1.12,0,0,0,.48,1,9.29,9.29,0,0,0,1.77.89,15.69,15.69,0,0,1,2.7,1.29,3.38,3.38,0,0,1,1.45,3,4,4,0,0,1-.75,2.46,4.21,4.21,0,0,1-1.79,1.43A5.73,5.73,0,0,1,264.63,74.92Z"/><path class="cls-2" d="M271.61,74.74V60.83h2.69V74.74Z"/></svg>